<svg width="277" height="56" viewBox="0 0 277 56" fill="none" xmlns="http://www.w3.org/2000/svg"><g clip-path="url(#a)"><path d="M45.546 39.206s-7.143-4.734-14.601-9.682c-1.748-1.157-1.753-3.75 0-4.908L45.5 14.974c.509-.34.652-1.027.316-1.541l-4.413-6.804a1.093 1.093 0 0 0-1.525-.32l-4.102 2.72s-8.416 5.576-16.521 10.953a2.064 2.064 0 0 0-.918 1.721v11.862l21.541 14.27c.494.325 1.15.185 1.471-.309l4.448-6.853c.33-.514.251-1.128-.252-1.457v-.01z" fill="#462146"/><path d="M.45 8.794s7.142 4.734 14.6 9.682c1.748 1.157 1.753 3.75 0 4.908L.5 33.031a1.119 1.119 0 0 0-.316 1.541l4.413 6.804a1.093 1.093 0 0 0 1.525.32l4.102-2.72s8.416-5.576 16.521-10.953c.573-.38.918-1.028.918-1.721V14.44L6.121.175A1.058 1.058 0 0 0 4.65.484L.197 7.342C-.133 7.856-.054 8.47.45 8.8v-.005z" fill="#4CBFE0"/><path d="M27.662 26.307V14.445l-.034-.025-8.372 5.552a2.055 2.055 0 0 0-.918 1.726V33.56l.034.024 8.372-5.551a2.06 2.06 0 0 0 .918-1.726z" fill="#2B5162"/></g><g clip-path="url(#b)" fill="#462146"><path d="M178.933 13.615c-1.924-1.107-4.787-1.692-8.866-1.692-6.25 0-11.745 1.57-13.023 2.092-.292.123-.692.354-.708.877l.062.293.862 4.03c.061.354.292.523.646.523l.416-.123c1.57-.353 6.019-1.569 9.805-1.569 1.924 0 3.325.17 4.156.585 1.232.584 1.401 1.569 1.401 3.154v1.569l-10.159 1.63c-4.264.647-9.051 1.631-9.067 9.108-.015 9.108 7.466 9.985 14.223 9.985 2.186 0 4.11-.123 5.773-.354l8.204-1.338.031-21.246c0-3.262-.801-5.954-3.725-7.524h-.031zm-5.249 24.154c-.754.231-2.632.646-4.787.646-2.34 0-5.603-.353-5.603-4.43 0-3.508 1.939-3.908 4.156-4.262l6.249-.985v9.047l-.015-.016zM202.13 37.062l-.17.061c-.477.062-1.077.185-2.031.185-1.124 0-2.309-.6-2.309-2.677l.061-29.646a.991.991 0 0 0-.985-.985h-7.188a.991.991 0 0 0-.985.985l-.062 30.477c0 4.923 2.786 8.384 8.851 8.384 3.448 0 5.172-.646 5.71-.892.124 0 .601-.293.601-.892v-.17l-.77-4.107c-.061-.416-.246-.723-.708-.723h-.015zM208.425 15.354l.031 27.461c0 .524.431.939.954.939h7.266c.539 0 .954-.354.954-.892l-.031-27.508c0-.57-.461-1.015-1.016-1.015h-7.126c-.57 0-1.032.461-1.016 1.03l-.016-.015zM81.189 4h-7.204a.992.992 0 0 0-.985.985V42.8c0 .523.431.954.954.954h7.266c.538 0 .954-.354.954-.892V4.984A.992.992 0 0 0 81.19 4zM149.379 12.277h-7.004c-.554 0-1 .446-1 1v2.23l-.077 17.77c0 2.708-.724 4.785-5.065 4.785-3.986 0-5.048-1.662-5.048-4.785V13.292c0-.553-.447-1.015-1.016-1.015h-7.066c-.569 0-1.016.446-1.016 1.015l-.061 19.631c0 8.492 4.926 11.154 14.207 11.154 9.821 0 14.239-3.292 14.239-11.215l-.031-19.554c0-.57-.462-1.031-1.047-1.031h-.015zM217.599 4.985a.991.991 0 0 0-.985-.985h-7.204a.992.992 0 0 0-.985.985v6.276c0 .57.462 1.016 1.016 1.016h7.127c.57 0 1.016-.462 1.016-1.015V4.984h.015zM111.79 13.139c-2.848-.678-5.973-1.139-9.328-1.139-10.19 0-14.516 3.246-14.546 15.877-.016 8.138 1.4 15.477 12.329 15.477 2.294 0 5.018-.246 6.85-.585a.483.483 0 0 1 .585.431c.138 1.108.539 3.738 1.354 5.846 1.186 3.062 2.894 5.246 6.342 6.2a.554.554 0 0 0 .693-.523V38.77l.031-20.738c0-2.846-1.309-4.216-4.31-4.892zm-4.541 23.723s-2.047.569-4.279.569c-4.449 0-6.204-.908-6.188-10.016 0-8.138 1.493-9.507 5.88-9.507 2.447 0 4.602.507 4.602.507l-.031 18.431.016.016zM275.876 12.277h-6.48c-.739 0-1.401.492-1.616 1.2l-6.465 24.308-6.157-24.508c-.185-.83-.601-1.015-1.37-1.015h-6.896c-.647 0-1.078.476-1.078 1.061 0 .123 0 .246.062.415l7.311 25.6 1.17 4.139h5.28l-.785 2.754c-.662 2.492-2.093 3.446-5.187 3.446-.585 0-1.17-.03-1.709-.046h-.046c-.893 0-1.001.6-1.078 1.2l-.061 3.692v.062c0 .584.292.953.893 1.061.554.077 1.246.23 2.832.339h1.416c7.804 0 9.944-3.57 11.56-9.108l9.466-33.123c0-.17.062-.293.062-.415 0-.6-.477-1.062-1.124-1.062zM244.013 42.661l.139-.03a.754.754 0 0 0 .539-.862c0-.03 0-.077-.016-.123l-1.17-4.123a.754.754 0 0 0-.862-.538c-1.077.2-3.217.538-4.448.507-3.032-.092-3.802-1.307-3.802-3.63l.031-15.047h5.664c.493 0 .893-.4.893-.892v-4.692a.946.946 0 0 0-.939-.954h-5.618V4.985a.992.992 0 0 0-.985-.985h-7.204a.991.991 0 0 0-.985.985l-.031 29.292c-.016 7.077 3.556 9.692 10.636 9.692 2.971 0 6.542-.877 8.158-1.308z"/></g><defs><clipPath id="a"><path fill="#fff" d="M0 0h46v48H0z"/></clipPath><clipPath id="b"><path fill="#fff" transform="translate(73 4)" d="M0 0h204v52H0z"/></clipPath></defs></svg>